<mxfile host="app.diagrams.net" modified="2024-05-15T00:05:07.088Z" agent="Mozilla/5.0 (Windows NT 10.0; Win64; x64; rv:126.0) Gecko/20100101 Firefox/126.0" etag="aqRmtSqkD9Q3vljCkXYS" version="24.3.1" type="github">
  <diagram name="第 1 页" id="rxkOVhqzTqR9OQhL-Rtd">
    <mxGraphModel dx="477" dy="261" grid="1" gridSize="10" guides="1" tooltips="1" connect="1" arrows="1" fold="1" page="1" pageScale="1" pageWidth="827" pageHeight="1169" math="0" shadow="0">
      <root>
        <mxCell id="0" />
        <mxCell id="1" parent="0" />
        <mxCell id="jDbUTvG4x1rniwGcR3s1-1" value="" style="rounded=0;fillColor=#1ba1e2;strokeColor=#006EAF;fontColor=#ffffff;" vertex="1" parent="1">
          <mxGeometry x="200" y="270" width="20" height="10" as="geometry" />
        </mxCell>
        <mxCell id="jDbUTvG4x1rniwGcR3s1-2" value="" style="rounded=0;fillColor=#1ba1e2;strokeColor=#006EAF;fontColor=#ffffff;" vertex="1" parent="1">
          <mxGeometry x="222" y="270" width="20" height="10" as="geometry" />
        </mxCell>
        <mxCell id="jDbUTvG4x1rniwGcR3s1-3" value="" style="rounded=0;fillColor=#1ba1e2;strokeColor=#006EAF;fontColor=#ffffff;" vertex="1" parent="1">
          <mxGeometry x="244" y="270" width="20" height="10" as="geometry" />
        </mxCell>
        <mxCell id="jDbUTvG4x1rniwGcR3s1-4" value="" style="rounded=0;fillColor=#1ba1e2;strokeColor=#006EAF;fontColor=#ffffff;" vertex="1" parent="1">
          <mxGeometry x="266" y="270" width="20" height="10" as="geometry" />
        </mxCell>
        <mxCell id="jDbUTvG4x1rniwGcR3s1-5" value="" style="rounded=0;fillColor=#1ba1e2;strokeColor=#006EAF;fontColor=#ffffff;" vertex="1" parent="1">
          <mxGeometry x="288" y="270" width="20" height="10" as="geometry" />
        </mxCell>
        <mxCell id="jDbUTvG4x1rniwGcR3s1-6" value="" style="rounded=0;fillColor=#dae8fc;strokeColor=#6c8ebf;" vertex="1" parent="1">
          <mxGeometry x="310" y="270" width="20" height="10" as="geometry" />
        </mxCell>
        <mxCell id="jDbUTvG4x1rniwGcR3s1-7" value="" style="rounded=0;fillColor=#dae8fc;strokeColor=#6c8ebf;" vertex="1" parent="1">
          <mxGeometry x="332" y="270" width="20" height="10" as="geometry" />
        </mxCell>
        <mxCell id="jDbUTvG4x1rniwGcR3s1-8" value="" style="rounded=0;fillColor=#dae8fc;strokeColor=#6c8ebf;" vertex="1" parent="1">
          <mxGeometry x="354" y="270" width="20" height="10" as="geometry" />
        </mxCell>
        <mxCell id="jDbUTvG4x1rniwGcR3s1-9" value="" style="rounded=0;fillColor=#dae8fc;strokeColor=#6c8ebf;" vertex="1" parent="1">
          <mxGeometry x="376" y="270" width="20" height="10" as="geometry" />
        </mxCell>
        <mxCell id="jDbUTvG4x1rniwGcR3s1-10" value="" style="rounded=0;fillColor=#dae8fc;strokeColor=#6c8ebf;" vertex="1" parent="1">
          <mxGeometry x="398" y="270" width="20" height="10" as="geometry" />
        </mxCell>
        <mxCell id="jDbUTvG4x1rniwGcR3s1-11" value="" style="rounded=0;fillColor=#dae8fc;strokeColor=#6c8ebf;" vertex="1" parent="1">
          <mxGeometry x="420" y="270" width="20" height="10" as="geometry" />
        </mxCell>
        <mxCell id="jDbUTvG4x1rniwGcR3s1-12" value="" style="rounded=0;fillColor=#dae8fc;strokeColor=#6c8ebf;" vertex="1" parent="1">
          <mxGeometry x="442" y="270" width="20" height="10" as="geometry" />
        </mxCell>
        <mxCell id="jDbUTvG4x1rniwGcR3s1-13" value="" style="rounded=0;fillColor=#dae8fc;strokeColor=#6c8ebf;" vertex="1" parent="1">
          <mxGeometry x="464" y="270" width="20" height="10" as="geometry" />
        </mxCell>
        <mxCell id="jDbUTvG4x1rniwGcR3s1-14" value="" style="rounded=0;fillColor=#dae8fc;strokeColor=#6c8ebf;" vertex="1" parent="1">
          <mxGeometry x="486" y="270" width="20" height="10" as="geometry" />
        </mxCell>
        <mxCell id="jDbUTvG4x1rniwGcR3s1-15" value="" style="rounded=0;fillColor=#dae8fc;strokeColor=#6c8ebf;" vertex="1" parent="1">
          <mxGeometry x="508" y="270" width="20" height="10" as="geometry" />
        </mxCell>
      </root>
    </mxGraphModel>
  </diagram>
</mxfile>
